<svg xmlns="http://www.w3.org/2000/svg" width="469" height="500" style="shape-rendering:geometricPrecision;text-rendering:geometricPrecision;image-rendering:optimizeQuality;fill-rule:evenodd;clip-rule:evenodd"><path style="opacity:.868" fill="#d32956" d="M208.5-.5h8c3.736 1.49 7.736 2.156 12 2a8.43 8.43 0 0 1-.5 4l-14 14c-1.169-.509-2.002-1.342-2.5-2.5a39.8 39.8 0 0 1 7-8c-9.969 2.576-18.803 6.743-26.5 12.5 2.454 12.638-1.713 22.47-12.5 29.5-3.95 1.133-6.617-.2-8-4v-4a58.746 58.746 0 0 1 5-11.5 93.388 93.388 0 0 1 9-10c-4.103-3.158-8.769-4.825-14-5-22.301 4.1-43.301 12.6-63 25.5-5.343 4.33-9.51 9.497-12.5 15.5a9.468 9.468 0 0 0-1.5-2.5c4.641-9.975 11.975-17.308 22-22 14.729-8.686 30.395-15.02 47-19 5-.667 10-.667 15 0 3.901 1.967 7.901 3.3 12 4a104.27 104.27 0 0 1 24-13 53.383 53.383 0 0 0-7-2c.837-1.011 1.17-2.178 1-3.5Zm-21 25c2.44 3.442 2.606 7.108.5 11-1.91 5.41-5.41 9.41-10.5 12-1.147-2.265-1.314-4.598-.5-7 2.543-6.028 6.043-11.361 10.5-16Z"/><path style="opacity:.893" fill="#99bb45" d="M426.5 10.5a214.83 214.83 0 0 1 25 7.5c2.624.576 3.291 1.91 2 4-4.418.182-8.751.348-13 .5-4.832-.988-9.832-2.322-15-4-2.09 1.29-3.424.624-4-2a3.647 3.647 0 0 1 1-1.5c2.986.128 5.986.128 9 0-3.025-.155-4.691-1.655-5-4.5Z"/><path style="opacity:.899" fill="#95c041" d="M358.5 14.5h3a8.43 8.43 0 0 0 .5 4c2.135-1.779 4.635-2.445 7.5-2-.214 1.644.12 3.144 1 4.5a93.54 93.54 0 0 0 11 1.5v4c-3.706 1.039-7.373 1.039-11 0 .327 1.988.66 3.988 1 6-.456 4.954-1.956 5.288-4.5 1-1.849 2.63-4.015 3.13-6.5 1.5l1-1a4.932 4.932 0 0 0-3-.5v4c-2.827 1.474-5.327 1.14-7.5-1-.471-5.344-.971-10.678-1.5-16 2.646-.392 5.146-.392 7.5 0l1.5-6Z"/><path style="opacity:.934" fill="#97ba44" d="M468.5 27.5v3h-7a111.526 111.526 0 0 0-8-5.5c1.467-2.186 3.467-2.852 6-2a136.554 136.554 0 0 1 9 4.5Z"/><path style="opacity:.916" fill="#97bb44" d="M389.5 23.5a82.092 82.092 0 0 1 18 1.5c1.333 1 1.333 2 0 3-6.659.576-12.992.243-19-1 .119-1.145.452-2.311 1-3.5Z"/><path style="opacity:.944" fill="#96bf42" d="M410.5 24.5c6.675-.166 13.342 0 20 .5.837 1.011 1.17 2.178 1 3.5a284.22 284.22 0 0 0-18.5 1c-3.001-.786-3.834-2.453-2.5-5Z"/><path style="opacity:.91" fill="#97b846" d="M437.5 24.5a60.94 60.94 0 0 1 11 .5c2.122 1.738 1.955 3.572-.5 5.5a73.396 73.396 0 0 0-11.5-1.5c-1.243-1.816-.91-3.316 1-4.5Z"/><path style="opacity:.932" fill="#94c041" d="M461.5 30.5h2c.734 1.208 1.067 2.541 1 4-6.582 2.138-12.248 4.804-17 8-1.925-.09-3.092-1.09-3.5-3-.998 2.273-2.498 4.44-4.5 6.5-4.275 1.957-7.941 4.624-11 8-1.284.684-2.451.517-3.5-.5-2.395-4.521-1.561-8.021 2.5-10.5A927.791 927.791 0 0 1 453 29.5c1.585.876 2.585 2.21 3 4 2.058-.73 3.891-1.73 5.5-3Z"/><path style="opacity:.933" fill="#ab7b50" d="M293.5 54.5c14.297.231 28.63.398 43 .5.457.414.791.914 1 1.5a536.009 536.009 0 0 0-25.5 40c-1.356.88-2.856 1.213-4.5 1a109.281 109.281 0 0 0-6.5-21 6152.267 6152.267 0 0 0-66.5 33 166.033 166.033 0 0 0-2.5 18c-1.011.837-2.178 1.17-3.5 1 .239-1.967-.094-3.801-1-5.5 1.694-2.624 2.36-5.29 2-8-.13-1.059-.63-1.892-1.5-2.5-2.996 6.663-4.996 13.663-6 21-2.476 1.563-3.976.896-4.5-2a66.67 66.67 0 0 1 4-14.5c-1.796-.436-3.129.231-4 2a59.676 59.676 0 0 0-4 15.5c-1.603.188-2.937-.312-4-1.5a99.774 99.774 0 0 0 2.5-12.5c-2 .667-3.333 2-4 4l-3.5 14c-.825.886-1.825 1.219-3 1 .256-2.292-.077-4.459-1-6.5 3.329-3.685 3.329-7.185 0-10.5a81.58 81.58 0 0 1-11-5c-.886-.825-1.219-1.825-1-3 5.266 1.7 10.432 3.7 15.5 6a60.631 60.631 0 0 1 6.5-3.5c-5.573-2.432-11.573-4.766-18-7-1.321-1.545-.988-2.711 1-3.5a829.49 829.49 0 0 0 21.5 8 16.2 16.2 0 0 0 3.5-1.5 133.093 133.093 0 0 0-14-6.5c-.929-1.189-1.262-2.522-1-4a127.679 127.679 0 0 1 20 8 7.293 7.293 0 0 0 3-2 174.14 174.14 0 0 1-16-7.5c-.837-1.011-1.17-2.178-1-3.5a155.619 155.619 0 0 1 22 9 3211.524 3211.524 0 0 1 68-33.5c-3.726-5.87-5.726-12.037-6-18.5Zm22 4a8.435 8.435 0 0 1 4 .5 6.977 6.977 0 0 0-2.5 3.5c-.5-1.167-1.333-2-2.5-2.5.556-.383.889-.883 1-1.5Zm-5 30c-.039-1.256.461-2.256 1.5-3 .585 1.498.085 2.498-1.5 3Z"/><path style="opacity:.771" fill="#de6767" d="M-.5 197.5v-10c4.454-10.221 10.454-19.554 18-28a146.753 146.753 0 0 1 36-28c-1.302-3.768-2.969-7.268-5-10.5l1-3-2-1c.697-2.709 1.03-5.376 1-8 1.333-.667 2.667-.667 4 0a276.55 276.55 0 0 0 35 16l14 7a4.933 4.933 0 0 1 1 2.5 326.886 326.886 0 0 0-17.5 38 15.252 15.252 0 0 0-4.5-1.5l1-1A131.864 131.864 0 0 1 71 154.5c-16.408 11.804-25.908 27.804-28.5 48 .034 3.467.7 6.8 2 10a18.085 18.085 0 0 1-2 3.5 16.242 16.242 0 0 1-8 0 272.16 272.16 0 0 0-13.5-7.5l-1 1c-4.417-4.058-9.584-6.891-15.5-8.5l1-1c-1.717-1.559-3.717-2.392-6-2.5Zm17-28a978.002 978.002 0 0 1 7-8 149.852 149.852 0 0 1 33.5-28 94.325 94.325 0 0 0-4.5-18.5l1-.5a979.871 979.871 0 0 0 44 21c-5.418 9.252-10.252 19.252-14.5 30a169.463 169.463 0 0 1-9-15 4.932 4.932 0 0 0-2.5-1c-11.203 6.685-19.536 15.519-25 26.5-3.698 6.38-6.698 12.713-9 19-.567 4.786-.567 9.952 0 15.5a179.334 179.334 0 0 1-32-16c-.976-2.997-.81-5.997.5-9 2.778-5.912 6.278-11.245 10.5-16Z"/><path style="opacity:.802" fill="#a5245d" d="M399.5 110.5a999.117 999.117 0 0 1 60 8.5c1.692 1.401 2.359 3.234 2 5.5-17.832 5.59-34.832 12.256-51 20-1.22-.387-1.887-1.22-2-2.5a64.274 64.274 0 0 1 7-12 35.892 35.892 0 0 0-13 3.5 3.647 3.647 0 0 1-1.5-1 40.703 40.703 0 0 1-9.5 2.5l-1.5 1.5c-4.913.632-9.913.632-15 0a33.573 33.573 0 0 0-9 3 73.432 73.432 0 0 0-9 0 30.453 30.453 0 0 0-8 3c-1.865-.868-3.698-.534-5.5 1-3.135-.637-6.135.029-9 2l-2-1a193.976 193.976 0 0 1-17 4c-2.267-.059-2.933-.892-2-2.5-2.503-1.784-2.503-3.451 0-5a2125.956 2125.956 0 0 1 98-20 82.259 82.259 0 0 0-12-3.5c-1.214-2.359-1.214-4.692 0-7Zm12 6a42.812 42.812 0 0 1 11 0 493.99 493.99 0 0 0 21 3.5 4.457 4.457 0 0 0 2 1.5c3.03-1.143 6.363-.976 10 .5a870.596 870.596 0 0 1-39 14c3.686-4.893 5.686-10.393 6-16.5a103.312 103.312 0 0 0-11-3Zm-29 15c11.356-3.37 23.023-5.537 35-6.5a241.307 241.307 0 0 1-35 6.5Zm0 0c-7.413 2.07-15.079 3.403-23 4 7.592-2.388 15.259-3.721 23-4Z"/><path style="opacity:.963" fill="#2a8997" d="M140.5 92.5c1.322-.17 2.489.163 3.5 1a403.81 403.81 0 0 0 3 41 4.457 4.457 0 0 0 1.5 2 292.444 292.444 0 0 1 10-4 398.591 398.591 0 0 0-9 25 19.887 19.887 0 0 1-3.5 4c-.606-2.886-2.106-5.052-4.5-6.5l1-1a32.443 32.443 0 0 0-7-8.5c-3.453 1.614-5.12.781-5-2.5l3-1c-.88-1.356-1.214-2.856-1-4.5 2.403-.107 4.236.893 5.5 3l1.5-1.5a404.537 404.537 0 0 1-6-45.5h3a8.43 8.43 0 0 0 .5 4c1.585.876 2.585 2.21 3 4 .498-2.982.665-5.982.5-9Z"/><path style="opacity:.948" fill="#b2244a" d="M357.5 180.5a8.43 8.43 0 0 1 4 .5 55.337 55.337 0 0 1 6 8c1.89 1.873 3.89 2.706 6 2.5 1.068 1.687.901 3.354-.5 5-2.128-.427-4.295.073-6.5 1.5-2.969 2.623-5.469 5.456-7.5 8.5-1.833-.5-3-1.667-3.5-3.5a39.591 39.591 0 0 1 7-8c-10.164-.403-19.831 2.597-29 9a48.932 48.932 0 0 0-6.5 9.5c-2.126 3.514-4.293 3.68-6.5.5.829-1.816 1.663-3.649 2.5-5.5 6.552-4.254 9.052-10.087 7.5-17.5-8.353.173-16.02 2.673-23 7.5-1.949 10.446-7.782 17.78-17.5 22-1.059-.13-1.892-.63-2.5-1.5.734-4.335 2.568-8.502 5.5-12.5a56.975 56.975 0 0 0 8.5-9.5c-.32-1.653-1.32-2.653-3-3-12.817.266-23.984 4.432-33.5 12.5-.67 6.693-3.837 11.693-9.5 15-3.495-2.008-3.995-4.675-1.5-8a35.916 35.916 0 0 1 6-8c.711-1.867.211-3.367-1.5-4.5-8.662.243-16.162 3.41-22.5 9.5-1.024 10.34-6.024 18.007-15 23-1.158-.498-1.991-1.331-2.5-2.5-.705-1.422-1.039-2.755-1-4a174.343 174.343 0 0 1 13-18c-1.444-2.723-3.778-3.889-7-3.5-14.557.805-28.224 5.638-41 14.5a136.092 136.092 0 0 0-8 11l-1 .5c-1.224-2.398-1.058-4.731.5-7 15.333-15.419 33.833-22.586 55.5-21.5a26.091 26.091 0 0 1 5 3.5c6.195-5.347 13.362-8.68 21.5-10 3.804.469 6.471 2.469 8 6 10.013-8.256 21.513-12.422 34.5-12.5a26.49 26.49 0 0 1 7.5 4.5c6.92-4.206 14.42-6.873 22.5-8 4.469.403 6.802 2.903 7 7.5-.45 1.55-.617 3.05-.5 4.5 8.071-5.064 16.905-8.064 26.5-9-2.695-2.405-4.028-5.405-4-9Zm-57 25c-.904 4.065-3.237 6.565-7 7.5a25.122 25.122 0 0 1 7-7.5Zm-70 9c.554 2.271.054 4.604-1.5 7a80.499 80.499 0 0 1-5.5 6.5c-.667.667-1.333.667-2 0a95.469 95.469 0 0 1 9-13.5Z"/><path style="opacity:.957" fill="#e14529" d="M468.5 247.5v5a126.426 126.426 0 0 0-9.5 19c-1.816 4.163-4.649 4.997-8.5 2.5-4.484-7.17-10.651-12.003-18.5-14.5-.684-1.284-.517-2.451.5-3.5 2.215-.17 4.215-.837 6-2-2.253-4.908-5.253-9.241-9-13-5.769-.027-10.269 2.473-13.5 7.5a47.462 47.462 0 0 0-3.5 12c2.151 13.12 6.484 25.454 13 37-3.228 3.295-6.894 6.128-11 8.5a12.93 12.93 0 0 1-5 .5 112.63 112.63 0 0 0-7-21.5l1-1a269.484 269.484 0 0 1-4-21c.727-3.845.727-7.845 0-12a664.882 664.882 0 0 1 7.5-17.5 490.07 490.07 0 0 0 18.5-11c1.231 1.151 1.231 2.317 0 3.5 5.943 1.389 11.109 4.222 15.5 8.5a136.77 136.77 0 0 1 11.5 19 77.544 77.544 0 0 1 16-6Zm-56 51c.789.283 1.456.783 2 1.5-1.316.528-1.983.028-2-1.5Z"/><path style="opacity:.922" fill="#df452b" d="M16.5 279.5a1270.914 1270.914 0 0 0 79 15.5c-1.756-3.215-1.923-6.715-.5-10.5.388-.928 1.055-1.595 2-2a80.54 80.54 0 0 0 16.5 9.5 340.43 340.43 0 0 1 32 14c1.624 1.117 2.624 2.617 3 4.5a101.65 101.65 0 0 1-6 10.5c-15.292 7.319-30.625 15.319-46 24-2.067.536-3.9.036-5.5-1.5a162.032 162.032 0 0 0-1.5-12 2197.316 2197.316 0 0 0-62 7v3c-2.327.253-4.327-.414-6-2a115.342 115.342 0 0 1-6-13 94.531 94.531 0 0 1 17-16 222.597 222.597 0 0 1-14-11.5 4.934 4.934 0 0 0-3-.5c-.13-6.247.203-12.58 1-19Zm12 8c16.56 2.851 33.227 6.517 50 11a3.647 3.647 0 0 0 1.5-1 47.359 47.359 0 0 1 13 4 3.944 3.944 0 0 0 2-1c.928 2.535 2.761 3.535 5.5 3a65.607 65.607 0 0 1-.5-14 35.978 35.978 0 0 0 8.5 5.5 301.05 301.05 0 0 1 31 14A1477.046 1477.046 0 0 0 99 325.5l-1-7c-1.454-3.329-3.621-4.162-6.5-2.5a2022.593 2022.593 0 0 0-66 6 3537.05 3537.05 0 0 0 21-17.5 108.462 108.462 0 0 1-18-17Zm0 8c.834 1.763.334 3.43-1.5 5-.122-1.782.378-3.448 1.5-5Zm96 25a2.428 2.428 0 0 1 2 .5c-2.668 6.149-3.335 5.982-2-.5Zm-56 2c.949 2.529.282 4.862-2 7l-1-.5a19.209 19.209 0 0 0 3-6.5Zm4 0c.876-.131 1.543.202 2 1-4.17 8.003-4.838 7.669-2-1Zm6 0c.876-.131 1.543.202 2 1l-2 4c-.865 1.083-1.865 1.249-3 .5a44.327 44.327 0 0 0 3-5.5Zm-20 1c.876-.131 1.543.202 2 1-.982 2.803-2.649 4.637-5 5.5a19.209 19.209 0 0 0 3-6.5Zm55 7c.255-2.516 1.089-4.85 2.5-7 .444 2.839-.39 5.172-2.5 7Zm-65-6c.876-.131 1.543.202 2 1-.412 2.387-1.412 4.387-3 6l-1-1c1.247-1.823 1.914-3.823 2-6Zm-19 2a4.934 4.934 0 0 1 3 .5 53.194 53.194 0 0 0-3.5 7.5 18.164 18.164 0 0 1 .5-8Zm71 3c.543.06.876.393 1 1a31.47 31.47 0 0 1-3.5 9c-.126-3.58.707-6.914 2.5-10Z"/><path style="opacity:.824" fill="#3e4d5c" d="M320.5 289.5a8.43 8.43 0 0 1 4 .5l36 36a8.43 8.43 0 0 0 4 .5c-.069 2.584-1.235 4.584-3.5 6l-1-1a457.565 457.565 0 0 0-33 24c-1.28-.113-2.113-.78-2.5-2-.925-4.813-2.592-9.146-5-13a352.117 352.117 0 0 0-39 2.5 14.444 14.444 0 0 0-5.5 2.5c-.388-.928-1.055-1.595-2-2a1704.595 1704.595 0 0 0-43.5 6.5l-4-19a78.734 78.734 0 0 0 1-11c-1.791-.415-3.124-1.415-4-3a221.706 221.706 0 0 1 31-4 8931.657 8931.657 0 0 1 64-4.5c-.464-6.734.536-13.067 3-19Zm4 8a29.01 29.01 0 0 1 3 4.5 25.724 25.724 0 0 0-3.5 7.5c-.357-4.01-.19-8.01.5-12Zm6 7a31.447 31.447 0 0 1 5 4.5 123.026 123.026 0 0 0-13 24.5 26.585 26.585 0 0 1-3.5 2c2.724-10.663 6.557-20.997 11.5-31Zm8 8c2.29.956 3.956 2.623 5 5-6.166 8.355-11.332 17.355-15.5 27a42.36 42.36 0 0 0-1.5-8.5 111.476 111.476 0 0 1 12-23.5Zm-41 2a18.453 18.453 0 0 1 6 .5 152.003 152.003 0 0 0-15 21.5c-2 1.333-4 1.333-6 0a5337.407 5337.407 0 0 0 15-22Zm10 0a12.93 12.93 0 0 1 5 .5c-5.552 6.993-10.218 13.993-14 21-2 .667-4 .667-6 0a441.838 441.838 0 0 0 15-21.5Zm11 0a4.934 4.934 0 0 1 3 .5c-2.982 6.74-5.648 13.24-8 19.5-2.667 1.333-5.333 1.333-8 0 4.344-6.695 8.677-13.362 13-20Zm-31 1a8.43 8.43 0 0 1 4 .5 139.484 139.484 0 0 0-14.5 20.5c-1.884 2.076-4.051 2.41-6.5 1a205.756 205.756 0 0 1 17-22Zm-21 1a8.43 8.43 0 0 1 4 .5 150.163 150.163 0 0 0-17.5 23.5c-2.139 1.269-4.305 1.269-6.5 0a399.571 399.571 0 0 0 15.5-22 36.354 36.354 0 0 0 4.5-2Zm15 0a137.81 137.81 0 0 0-17 22c-1.923 1.148-3.923 1.648-6 1.5 4.917-8.575 10.917-16.242 18-23a12.93 12.93 0 0 1 5-.5Zm-32 2a186.074 186.074 0 0 0-17.5 22c-.257-2.517.41-4.85 2-7a378.196 378.196 0 0 1 11.5-14.5 8.43 8.43 0 0 1 4-.5Zm7 0a6260.696 6260.696 0 0 1-16 23 26.585 26.585 0 0 1-3.5 2c-.667-1-.667-2 0-3a204.671 204.671 0 0 1 19.5-22Zm-26 1c2.146.196 2.312 1.196.5 3-1.728-.852-1.895-1.852-.5-3Zm105 23a119.637 119.637 0 0 1 12.5-22 16.2 16.2 0 0 1 1.5 3.5 252.048 252.048 0 0 1-6.5 13.5 54.223 54.223 0 0 1-7.5 5Zm16-11c.198-3.424 1.532-4.258 4-2.5-.971 1.481-2.304 2.315-4 2.5Z"/><path style="opacity:.896" fill="#3693b6" d="M433.5 403.5a30.233 30.233 0 0 1-3 3.5c1.411 5.662-.423 6.829-5.5 3.5-.667-1.667-.667-3.333 0-5 1.793-2.47 3.627-4.97 5.5-7.5-25.011 7.017-47.511 20.517-67.5 40.5-6.79 8.952-5.29 16.119 4.5 21.5 3.842.956 7.675 1.79 11.5 2.5a159.14 159.14 0 0 0 35.5-6.5c1.992-.574 3.492-1.741 4.5-3.5l1-9a158.709 158.709 0 0 0 15.5-14.5 17.758 17.758 0 0 1 7-1.5c.284 3.277-.049 6.443-1 9.5 2.331 1.8 2.331 3.8 0 6 3.711.175 7.378.675 11 1.5a9.425 9.425 0 0 1 3 3 56.72 56.72 0 0 1-10 8c-5.758 1.947-9.924 5.614-12.5 11a224.18 224.18 0 0 1-13.5-8c-2.512.88-4.679 2.213-6.5 4a3.647 3.647 0 0 0-1.5-1c-13.786 4.47-27.786 5.97-42 4.5l-8-2.5c-1.028-1.861-2.528-3.195-4.5-4a253.696 253.696 0 0 1-4.5-10.5c3.614-10.744 10.281-19.744 20-27 15.898-11.95 33.232-21.283 52-28a73.396 73.396 0 0 1-11.5-1.5c-1.557.705-2.723.039-3.5-2a3.647 3.647 0 0 1 1-1.5 150.705 150.705 0 0 1 30 1c1.017 1.049 1.184 2.216.5 3.5a105.353 105.353 0 0 0-7.5 10Zm2 33c-.671 1.347-.671 2.514 0 3.5-1.393 1.171-2.227 2.671-2.5 4.5a6.978 6.978 0 0 0-3.5-2.5 46.081 46.081 0 0 1 6-5.5Zm-9 8c.098 2.053-.569 3.72-2 5-.38-2.198.287-3.865 2-5Zm16 3a18.453 18.453 0 0 1 6 .5 48.932 48.932 0 0 0-9.5 6.5c-1.491-1.504-3.324-2.337-5.5-2.5l2.5-2.5c2.983 2.438 5.15 1.771 6.5-2Zm-15 10c2.068-.533 4.068-.533 6 0a11.38 11.38 0 0 1-2.5 2c-.816-1.323-1.983-1.989-3.5-2Z"/><path style="opacity:.004" fill="#a06e5c" d="M433.5 403.5c1.333.667 1.333.667 0 0Z"/><path style="opacity:.988" fill="#e48e78" d="M49.5 477.5c-3.754 2.248-7.088 5.081-10 8.5-2.612.741-4.279-.259-5-3 .76-1.835 1.094-3.835 1-6a74.45 74.45 0 0 1-1.5-9.5c-2.869.537-5.869.537-9 0a64.993 64.993 0 0 0-7 2 15.653 15.653 0 0 0-2.5-4c5.592-5.47 11.926-9.97 19-13.5l4-4c-1.333-1.333-1.333-2.667 0-4a274.47 274.47 0 0 0 25 4 1443.319 1443.319 0 0 1 57-32c-1.654-3.495-3.654-6.662-6-9.5.381-2.207 1.714-3.54 4-4 1.412 1.306 3.079 2.14 5 2.5 6.966.15 13.8.983 20.5 2.5l.5 2c-4.945 5.467-8.445 11.801-10.5 19-1.558-.845-2.558-.179-3 2a15.256 15.256 0 0 0-4.5-1.5c-.502-2.859-1.836-5.693-4-8.5-20.188 11.508-39.188 22.175-57 32-.938 4.005-1.105 8.005-.5 12-4.758 4.209-9.924 8.543-15.5 13Zm-6-26c.283-.789.783-1.456 1.5-2 1.947.61 3.78 1.443 5.5 2.5a179.406 179.406 0 0 0-7-.5Zm9 0c1.837.139 2.17.806 1 2-.797-.457-1.13-1.124-1-2Zm-10 1c.304.65.637 1.317 1 2a32.058 32.058 0 0 0-4 2.5c.95.718 1.117 1.551.5 2.5-1.925-2.473-3.758-2.473-5.5 0a14.962 14.962 0 0 0 3 3.5 72.368 72.368 0 0 1-12 .5c5.673-4.47 11.34-8.137 17-11Zm-3 19c4.103-2.5 7.436-5.833 10-10-.147 1.476.687 2.809 2.5 4 2.093-1.848 3.426-4.181 4-7 .965-1.76 2.132-2.094 3.5-1a59.608 59.608 0 0 0-.5 6 219.043 219.043 0 0 1-19 16 32.438 32.438 0 0 1-.5-8Z"/><path style="opacity:.004" fill="#a06e5c" d="M445.5 455.5c1.333.667 1.333.667 0 0Z"/><path style="opacity:.993" fill="#c3ce51" d="M237.5 499.5h-4c-.829-2.433-.329-4.767 1.5-7a113.053 113.053 0 0 1 11-14c3.02 2.185 3.186 4.685.5 7.5 9.548-4.214 16.548-11.214 21-21a18.473 18.473 0 0 1-2-3.5c-1.171-.845-2.505-1.511-4-2-4.514-.071-9.18.263-14 1a5.727 5.727 0 0 1-3 1c-2.247.457-4.247 1.457-6 3-1.97-.943-3.47-.276-4.5 2-3.212-.815-5.878.185-8 3-1.016-1.134-1.683-.801-2 1l-1-1c-14.496 6.91-27.33 14.576-38.5 23a7.293 7.293 0 0 1-2-3c18.927-15.274 40.261-26.107 64-32.5 7.156-2.314 14.156-1.981 21 1 4.627 4.36 5.127 9.193 1.5 14.5a85.596 85.596 0 0 1-19.5 18.5c3.146.11 4.146 1.443 3 4a53.49 53.49 0 0 0-8.5 2.5l-1-1c-1.867.752-3.701 1.752-5.5 3Z"/><path style="opacity:.004" fill="#ad6858" d="M261.5 459.5c1.495.489 2.829 1.155 4 2-1.983.343-3.317-.324-4-2Z"/><path style="opacity:.004" fill="#a6685a" d="M247.5 460.5c-.553 2.052-1.553 2.385-3 1a5.727 5.727 0 0 0 3-1Z"/><path style="opacity:.004" fill="#a06e5c" d="M49.5 477.5c1.333.667 1.333.667 0 0Z"/></svg>